<?xml version="1.0" encoding="UTF-8"?>
<svg version="1.1" xmlns="http://www.w3.org/2000/svg" width="1080" height="1080">
<path d="M0 0 C3.81413755 3.19323144 3.81413755 3.19323144 4.6875 6.25 C5.30773201 14.9437606 1.2790706 22.05160214 -4.30078125 28.57421875 C-5.48120329 29.73997716 -6.68771589 30.88051631 -7.9296875 31.98046875 C-9.44710967 33.22220187 -9.44710967 33.22220187 -10.3125 35.25 C-10.9725 35.25 -11.6325 35.25 -12.3125 35.25 C-12.3125 35.91 -12.3125 36.57 -12.3125 37.25 C-13.7109375 38.625 -13.7109375 38.625 -15.6875 40.25 C-32.03932046 54.2822102 -43.86523508 71.81869975 -56.3125 89.25 C-56.80234375 89.93545898 -57.2921875 90.62091797 -57.796875 91.32714844 C-58.96913757 92.96782211 -60.14087853 94.60886845 -61.3125 96.25 C-60.72186768 96.29535889 -60.13123535 96.34071777 -59.52270508 96.38745117 C-52.88215198 96.96581984 -46.49941738 98.1014933 -40 99.5625 C-38.88858643 99.81104736 -37.77717285 100.05959473 -36.63208008 100.31567383 C-24.52226649 103.09645769 -12.51067155 106.25982091 -0.5 109.4375 C0.50374664 109.70116364 1.50749329 109.96482727 2.54165649 110.23648071 C5.43216755 110.99782899 8.31994341 111.76875265 11.20703125 112.54296875 C12.50864197 112.88495804 12.50864197 112.88495804 13.83654785 113.2338562 C25.44182336 116.38148504 25.44182336 116.38148504 28.6875 121.25 C29.55154626 126.02499248 29.07605696 129.48628459 26.875 133.8125 C25.0149321 135.71590865 24.01568682 136.20909685 21.35449219 136.54077148 C14.70800276 136.43007731 8.30586772 135.84017071 1.75 134.75 C0.70223389 134.58056885 -0.34553223 134.4111377 -1.42504883 134.23657227 C-11.20008827 132.58086754 -20.83860739 130.39367738 -30.5 128.1875 C-47.97164657 124.20348972 -65.24482704 120.87541431 -83.24047852 120.80297852 C-88.23092368 120.69171069 -90.83012591 119.85604718 -94.3125 116.25 C-96.93849318 111.78581159 -97.99653786 108.02406805 -97.203125 102.953125 C-89.23886372 78.78089339 -66.62357066 56.02890786 -51.3125 36.25 C-50.74241211 35.51313965 -50.17232422 34.7762793 -49.58496094 34.01708984 C-47.72486755 31.614346 -45.86277192 29.21316772 -44 26.8125 C-43.41323486 26.05501465 -42.82646973 25.2975293 -42.22192383 24.51708984 C-40.59347135 22.4216051 -38.95590181 20.33377367 -37.3125 18.25 C-36.83119629 17.63366699 -36.34989258 17.01733398 -35.85400391 16.38232422 C-34.72049702 14.96595905 -33.52262769 13.60148774 -32.3125 12.25 C-31.6525 12.25 -30.9925 12.25 -30.3125 12.25 C-30.3125 11.59 -30.3125 10.93 -30.3125 10.25 C-22.12542271 3.05901712 -11.14978493 -5.89045242 0 0 Z " fill="#000000" transform="translate(182.3125,321.75)"/>
<path d="M0 0 C1.90838444 3.01323859 2.1875 5.32904442 2.1875 8.875 C-2.0663817 15.32118953 -9.2399193 15.89776792 -16.375 17.4375 C-17.71000979 17.73692421 -19.04497005 18.0365693 -20.37988281 18.33642578 C-39.51364263 22.54912777 -59.49134718 26.04323243 -79.125 26.0625 C-80.13916992 26.08086914 -80.13916992 26.08086914 -81.17382812 26.09960938 C-86.15296464 26.11418246 -89.92694713 25.57199758 -93.6875 22.1875 C-95.34833755 18.77355615 -94.73202707 16.48742777 -93.8125 12.875 C-86.8223949 3.76045119 -69.26785904 2.7362093 -58.62109375 1.28515625 C-47.61520862 -0.08313641 -36.5878071 -0.4890827 -25.50708008 -0.78369141 C-2.29293269 -1.4231996 -2.29293269 -1.4231996 0 0 Z " fill="#000000" transform="translate(865.8125,187.125)"/>
<path d="M0 0 C4.94606194 0.87736161 5.99784954 2.72935648 8.79858398 6.71166992 C9.64851929 7.98941284 9.64851929 7.98941284 10.515625 9.29296875 C11.74972453 11.05319042 12.98541475 12.81229787 14.22265625 14.5703125 C14.8254541 15.44155762 15.42825195 16.31280273 16.04931641 17.21044922 C24.2658468 28.97539872 33.87972322 39.30447302 43.765625 49.66796875 C50.58622653 56.85810751 58.02379242 64.86783673 59.140625 75.10546875 C58.765625 78.66796875 58.765625 78.66796875 56.765625 81.10546875 C52.90972662 83.11374915 49.94508094 83.76858279 45.765625 82.66796875 C42.14539427 80.67968226 38.82985406 78.44335655 35.765625 75.66796875 C35.765625 75.00796875 35.765625 74.34796875 35.765625 73.66796875 C35.105625 73.66796875 34.445625 73.66796875 33.765625 73.66796875 C32.08774634 71.7912304 30.54675014 69.91077111 29.015625 67.91796875 C28.53899414 67.30397217 28.06236328 66.68997559 27.57128906 66.05737305 C20.99387728 57.48377368 14.85532956 48.59143708 8.765625 39.66796875 C8.05148437 38.62511719 7.33734375 37.58226562 6.6015625 36.5078125 C3.17873006 31.32667572 0.22953855 25.93465131 -2.609375 20.41796875 C-2.95597168 19.75571289 -3.30256836 19.09345703 -3.65966797 18.41113281 C-5.77307551 14.18431774 -6.96516218 10.46112744 -7.234375 5.66796875 C-5.29515598 1.8703315 -4.19238469 0.86581858 0 0 Z " fill="#000000" transform="translate(556.234375,769.33203125)"/>
<path d="M0 0 C3.01509858 0.663818 4.17646057 1.90123324 5.8984375 4.41796875 C9.23024479 11.08158332 8.8701506 19.90774305 6.8984375 26.98046875 C1.03362775 42.12434369 -12.00433499 50.01994097 -26.1015625 56.41796875 C-30.37973898 58.03776831 -34.66313429 59.31848849 -39.1015625 60.41796875 C-40.44541016 60.75441406 -40.44541016 60.75441406 -41.81640625 61.09765625 C-55.19525437 64.10738171 -55.19525437 64.10738171 -59.85546875 61.3984375 C-61.87488153 58.18890058 -61.28526681 55.15328963 -61.1015625 51.41796875 C-60.30274658 51.07185547 -60.30274658 51.07185547 -59.48779297 50.71875 C-30.20574626 38.27011206 -30.20574626 38.27011206 -12.98046875 12.59765625 C-12.64917969 11.73398437 -12.31789063 10.8703125 -11.9765625 9.98046875 C-9.41314581 3.50940467 -7.48707191 -0.51491015 0 0 Z " fill="#000000" transform="translate(888.1015625,773.58203125)"/>
<path d="M0 0 C7.00938601 2.14783021 13.25406106 8.38224084 18.12890625 13.65234375 C18.71929688 14.18859375 19.3096875 14.72484375 19.91796875 15.27734375 C26.03257745 20.94339042 30.06168808 27.41795986 34.12890625 34.65234375 C34.65355469 35.565 35.17820312 36.47765625 35.71875 37.41796875 C42.44593888 49.90877038 51.19468059 69.92882598 49.87890625 84.40234375 C49.12890625 86.65234375 49.12890625 86.65234375 46.12890625 88.65234375 C43.12890625 89.02734375 43.12890625 89.02734375 40.12890625 88.65234375 C37.71835006 86.0033809 36.49952907 83.38054534 35.3671875 80.01171875 C34.9021582 78.664729 34.9021582 78.664729 34.42773438 77.29052734 C34.10224609 76.33742676 33.77675781 75.38432617 33.44140625 74.40234375 C26.30016545 54.20084669 16.32107494 35.29066523 0.66796875 20.28515625 C0.07266357 19.7120874 -0.5226416 19.13901855 -1.13598633 18.54858398 C-2.31151343 17.43117068 -3.50109813 16.32831583 -4.70581055 15.24243164 C-7.43555664 12.66404425 -8.79355717 11.18799227 -9.33984375 7.4140625 C-8.87109375 4.65234375 -8.87109375 4.65234375 -7.30859375 2.27734375 C-4.80866471 0.61072439 -3.03549732 -0.16390374 0 0 Z " fill="#010101" transform="translate(818.87109375,495.34765625)"/>
<path d="M0 0 C3.21525096 -0.05566117 6.42988604 -0.09155512 9.64550781 -0.11669922 C10.58112549 -0.12975098 11.51674316 -0.14280273 12.48071289 -0.15625 C28.00779473 -0.1758496 28.00779473 -0.1758496 34.14550781 3.82080078 C35.93015673 6.88019893 36.1108527 8.58896136 35.45800781 12.07080078 C32.40468832 15.67504532 29.6455155 16.37605595 25.12597656 16.79345703 C22.966736 16.92302493 20.80641024 17.03527852 18.64550781 17.13330078 C9.68232673 17.66461042 0.85102114 18.45855588 -8.04199219 19.69580078 C-36.90924683 23.53328941 -36.90924683 23.53328941 -47.54199219 18.07080078 C-49.26855469 16.71142578 -49.26855469 16.71142578 -50.54199219 15.07080078 C-51.15256911 9.57560847 -51.15256911 9.57560847 -50.54199219 7.07080078 C-46.67864902 2.31073148 -43.01588199 2.15545891 -37.18505859 1.41552734 C-31.20233246 0.84940958 -25.2357149 0.59598591 -19.22949219 0.44580078 C-17.93293701 0.4093042 -16.63638184 0.37280762 -15.30053711 0.33520508 C-10.2007234 0.20179698 -5.10051607 0.10195407 0 0 Z " fill="#010101" transform="translate(482.5419921875,340.92919921875)"/>
<path d="M0 0 C19.92082567 6.64027522 37.32728528 17.77432924 52.5625 32.1875 C53.97443555 33.40135826 55.39087821 34.61000036 56.8125 35.8125 C64.17651433 42.29163277 64.17651433 42.29163277 66.5625 46.1875 C66.63202069 49.2464103 65.98148006 50.48919989 64.4375 53.0625 C61.33029193 54.92682484 59.00605352 53.98324959 55.5625 53.1875 C53.02759624 51.76558523 50.82449071 50.00518197 48.5625 48.1875 C41.20867201 42.55309222 33.5966208 37.78231942 25.5625 33.1875 C24.74942383 32.7219873 23.93634766 32.25647461 23.09863281 31.77685547 C19.52132426 29.73106132 15.94215852 27.68854917 12.36132812 25.64892578 C6.86289566 22.51401364 1.37920449 19.3575349 -4.0625 16.125 C-4.67158203 15.76728516 -5.28066406 15.40957031 -5.90820312 15.04101562 C-12.64973026 11.00543018 -12.64973026 11.00543018 -14.25 7.3125 C-14.50171186 4.45976556 -13.7335437 2.71137457 -12.4375 0.1875 C-8.46087923 -1.80081039 -4.19539523 -0.99163887 0 0 Z " fill="#010101" transform="translate(728.4375,419.8125)"/>
<path d="M0 0 C4.24709964 0.47951125 5.71431955 1.59554189 8.75390625 4.47265625 C23.07047933 17.73460148 38.70978425 26.7927408 57.5 32 C61.2415979 33.11203484 63.69167833 34.02012695 65.875 37.4375 C66.93935104 41.34012049 67.27239585 43.49629929 65.6875 47.25 C63.16824345 50.29048204 61.13245045 51.27893587 57.2109375 51.7734375 C39.77937311 52.00340537 25.88835289 40.87581145 13.73046875 29.30859375 C8.91885601 24.53006188 4.34150564 19.53905384 -0.125 14.4375 C-0.59711914 13.92437256 -1.06923828 13.41124512 -1.55566406 12.88256836 C-5.13902974 8.86540701 -5.13902974 8.86540701 -5 4.625 C-3.87948613 0.54312806 -3.87948613 0.54312806 0 0 Z " fill="#010101" transform="translate(640.125,859.5625)"/>
<path d="M0 0 C3.15739949 1.18402481 3.74091846 2.05694746 5.5 4.9375 C6.61169821 7.80469388 7.46370602 10.73327096 8.3125 13.6875 C8.69498901 14.98977539 8.69498901 14.98977539 9.08520508 16.31835938 C11.92922433 26.15882269 14.39304408 36.09895859 16.78808594 46.05688477 C17.27817098 48.03991407 17.79335606 50.01685337 18.32910156 51.98803711 C20.01245812 58.26667751 20.97628757 64.00071422 20.875 70.5 C20.88660156 71.27923828 20.89820313 72.05847656 20.91015625 72.86132812 C20.88170795 78.36607411 20.88170795 78.36607411 19.1875 80.90234375 C16.24912502 82.70481914 13.91745509 82.9375 10.5 82.9375 C1.21246971 76.18293251 0.4467428 62.91438817 -1.25 52.3671875 C-1.63020793 49.95368294 -2.00352332 47.53931522 -2.37060547 45.1237793 C-3.17040367 39.8883066 -4.10166912 34.69590436 -5.125 29.5 C-9.11280132 8.44272106 -9.11280132 8.44272106 -4.1875 0.9375 C-2.5 -0.0625 -2.5 -0.0625 0 0 Z " fill="#020202" transform="translate(502.5,618.0625)"/>
<path d="M0 0 C2.75 0.5 2.75 0.5 4.75 2.5 C4.49198354 7.09395156 3.34664992 9.49286911 0.3125 12.875 C-5.33253715 19.60057199 -9.74238758 26.98976576 -14.25 34.5 C-14.79188965 35.38993652 -14.79188965 35.38993652 -15.34472656 36.29785156 C-19.99247326 43.95373536 -23.77006153 51.72056643 -27.30541992 59.9309082 C-33.94942713 75.19942713 -33.94942713 75.19942713 -38.25 79.5 C-42.04473981 79.85799432 -44.38657281 80.06804421 -47.625 77.9375 C-50.47793989 73.65809017 -50.6401351 70.59915973 -49.7265625 65.68359375 C-45.80163929 51.01014231 -36.57915024 39.17315784 -27.25 27.5 C-26.10312345 25.97995321 -24.95718712 24.45919624 -23.8125 22.9375 C-20.07755063 18.14047972 -15.98489691 13.68496463 -11.828125 9.25390625 C-10.33510929 7.65909402 -8.8571912 6.04927708 -7.421875 4.40234375 C-4.97640808 1.68015294 -3.67756062 0.56577856 0 0 Z " fill="#000000" transform="translate(558.25,334.5)"/>
<path d="M0 0 C1.13695312 -0.03867188 1.13695312 -0.03867188 2.296875 -0.078125 C2.94140625 0.03015625 3.5859375 0.1384375 4.25 0.25 C6.25 3.25 6.25 3.25 6.1875 5.6875 C4.93521317 9.11041734 3.21000211 10.15985924 0.25 12.25 C-2.51953125 13.453125 -2.51953125 13.453125 -5.5625 14.5 C-21.61486275 20.42646688 -35.64048253 29.12368395 -49.31103516 39.31884766 C-53.93365629 42.73650316 -58.61740618 45.63868034 -63.75 48.25 C-66.25 47.1875 -66.25 47.1875 -68.75 45.25 C-69.52562898 41.65390198 -69.42804663 39.39897291 -67.53515625 36.19140625 C-66.01000262 34.13846408 -64.41170584 32.19373848 -62.75 30.25 C-62.10675781 29.42113281 -61.46351563 28.59226562 -60.80078125 27.73828125 C-47.62630578 11.75325102 -20.58227474 0.42584017 0 0 Z " fill="#000000" transform="translate(691.75,231.75)"/>
<path d="M0 0 C2 2 2 2 2.375 4.875 C1.90624286 8.78130952 0.99149175 9.52683603 -2 12 C-4.890625 13.30859375 -4.890625 13.30859375 -8.25 14.4375 C-9.48903076 14.85596191 -10.72806152 15.27442383 -12.00463867 15.70556641 C-13.33596687 16.13845819 -14.66776447 16.56990869 -16 17 C-16.67173248 17.22032898 -17.34346497 17.44065796 -18.03555298 17.66766357 C-50.63308119 28.32930315 -50.63308119 28.32930315 -63 26 C-65.6875 24.4375 -65.6875 24.4375 -67 22 C-67.5 18.5 -67.5 18.5 -67 15 C-57.67627261 3.21677618 -33.23485569 2.30845192 -19.36328125 0.5703125 C-12.96183921 -0.16147507 -6.42027505 -0.77729745 0 0 Z " fill="#010101" transform="translate(380,346)"/>
<path d="M0 0 C9.64715368 12.03184336 9.83749164 29.94511029 8.7265625 44.609375 C7.95379929 51.52050258 6.62373334 58.0369754 4.625 64.6875 C4.3297644 65.69453979 4.3297644 65.69453979 4.02856445 66.72192383 C2.74397642 70.72471443 1.35658885 73.41699999 -2 76 C-4.625 75.9375 -4.625 75.9375 -7 75 C-9.29367607 71.55948589 -9.1443058 70.92812189 -8.640625 67.00390625 C-8.0075683 61.2960947 -7.76994573 55.67846424 -7.75 49.9375 C-7.74605225 48.92034912 -7.74210449 47.90319824 -7.73803711 46.85522461 C-7.80527279 37.75068156 -8.7486039 28.82788663 -10.02050781 19.81811523 C-10.86474823 13.60922645 -11.24012804 8.17571298 -10 2 C-6.25401267 -0.49732489 -4.42998969 -0.62175294 0 0 Z " fill="#000000" transform="translate(884,654)"/>
<path d="M0 0 C14.92900892 7.51380766 14.92900892 7.51380766 19.95703125 13.48828125 C20.51953125 16.98828125 20.51953125 16.98828125 19.95703125 20.48828125 C17.83203125 22.98828125 17.83203125 22.98828125 14.95703125 24.48828125 C10.19510287 24.14195919 6.89610162 22.55036696 2.76953125 20.23828125 C-7.22695604 14.95423018 -18.1002285 12.75472722 -29.08203125 10.3984375 C-29.89381836 10.2233667 -30.70560547 10.0482959 -31.54199219 9.86791992 C-33.082045 9.54082486 -34.62431315 9.22392762 -36.16894531 8.91918945 C-40.29570599 8.06365312 -43.7055957 7.12338854 -47.04296875 4.48828125 C-47.59021817 0.72594146 -47.58269562 -1.53507012 -45.73046875 -4.88671875 C-35.9792557 -14.27677576 -10.19900478 -4.506537 0 0 Z " fill="#000000" transform="translate(669.04296875,366.51171875)"/>
<path d="M0 0 C1.87109375 1.81640625 1.87109375 1.81640625 3 4 C3 7.5625 3 7.5625 2 11 C-2.4251791 14.55820523 -7.97616616 15.48509518 -13.375 16.8125 C-15.4429135 17.33121403 -17.51061593 17.8507701 -19.578125 18.37109375 C-20.63837891 18.63647949 -21.69863281 18.90186523 -22.79101562 19.17529297 C-25.93124304 19.9823295 -29.05160041 20.84190143 -32.171875 21.72265625 C-53.8024595 27.77429987 -53.8024595 27.77429987 -62 26 C-63.796875 24.67578125 -63.796875 24.67578125 -65 23 C-65.5 19.625 -65.5 19.625 -65 16 C-59.39129709 9.09133604 -51.24465373 8.00992587 -43 6 C-41.91444824 5.73477539 -40.82889648 5.46955078 -39.71044922 5.19628906 C-9.14573178 -2.12434795 -9.14573178 -2.12434795 0 0 Z " fill="#000000" transform="translate(258,379)"/>
<path d="M0 0 C3.50555608 1.02245386 4.18430617 1.79266946 6 4.875 C6.1796875 6.92578125 6.1796875 6.92578125 5.875 9.1875 C5.76027344 10.08597656 5.64554688 10.98445313 5.52734375 11.91015625 C5 14.875 5 14.875 4.25390625 17.80859375 C1.65123165 28.38118099 1.80564568 38.72152005 2.11108398 49.52832031 C2.13630127 50.78999023 2.16151855 52.05166016 2.1875 53.3515625 C2.23970703 55.0543335 2.23970703 55.0543335 2.29296875 56.79150391 C1.95840785 60.31275733 1.22735215 62.13784006 -1 64.875 C-4.24799935 65.39055545 -5.94048613 65.64142368 -9 64.875 C-12.96605512 61.32642437 -14.66880986 56.93141184 -15.23925781 51.66699219 C-16.12585323 35.17631748 -14.56865259 16.46006522 -6 1.875 C-3 -0.125 -3 -0.125 0 0 Z " fill="#020202" transform="translate(508,486.125)"/>
<path d="M0 0 C2.60282468 0.71442517 5.1790756 1.48844201 7.7578125 2.28515625 C15.97756901 4.53896045 23.30414633 4.21595464 31.5078125 2.1796875 C37.52762489 0.8849852 42.30943996 1.42723515 47.6328125 4.72265625 C50.08270092 7.17254467 50.3986794 8.28870418 50.6328125 11.72265625 C48.61541213 17.21446837 45.6389376 20.26689287 40.3984375 22.8046875 C29.41695773 26.44967019 17.82066619 23.12666073 7.6328125 18.72265625 C2.36739065 16.06273384 -2.5199388 13.27494374 -6.3671875 8.72265625 C-6.3046875 5.09765625 -6.3046875 5.09765625 -5.3671875 1.72265625 C-2.3671875 -0.27734375 -2.3671875 -0.27734375 0 0 Z " fill="#010101" transform="translate(751.3671875,870.27734375)"/>
<path d="M0 0 C5.23150163 0.59065341 7.22368861 2.87788821 10.875 6.4375 C12.01179872 7.40653327 13.15699341 8.36585258 14.3125 9.3125 C15.158125 10.01375 16.00375 10.715 16.875 11.4375 C12.84918458 11.4375 10.93951899 9.40965958 7.9375 7 C3.40157108 3.22556494 3.40157108 3.22556494 -2.125 1.4375 C-2.42062367 6.75920494 -2.42062367 6.75920494 -0.125 11.4375 C-4 9.5625 -4 9.5625 -5.125 8.4375 C-4.28526106 0.59993655 -4.28526106 0.59993655 0 0 Z " fill="#111111" transform="translate(640.125,859.5625)"/>
<path d="M0 0 C5.74548634 0.46585024 9.55497444 2.07098434 14.4375 5.0625 C15.07365234 5.43955078 15.70980469 5.81660156 16.36523438 6.20507812 C17.91632902 7.12640502 19.45907343 8.06176593 21 9 C20.67 9.66 20.34 10.32 20 11 C18.97519531 10.44570313 17.95039062 9.89140625 16.89453125 9.3203125 C15.53392909 8.58840237 14.17324782 7.85663929 12.8125 7.125 C12.13896484 6.76019531 11.46542969 6.39539063 10.77148438 6.01953125 C7.2433872 4.12640594 3.76544867 2.38919466 0 1 C0 0.67 0 0.34 0 0 Z " fill="#070707" transform="translate(661,365)"/>
<path d="M0 0 C3.98718441 0.63410644 6.75654996 2.63826057 10.0625 4.875 C11.10535156 5.57367188 12.14820313 6.27234375 13.22265625 6.9921875 C15.39265884 8.56093762 17.20938314 10.02970187 19 12 C18.67 12.66 18.34 13.32 18 14 C17.11957031 13.31292969 16.23914063 12.62585938 15.33203125 11.91796875 C14.15896515 11.00766946 12.98578185 10.0975212 11.8125 9.1875 C11.23435547 8.73568359 10.65621094 8.28386719 10.06054688 7.81835938 C6.81151595 5.30357273 3.53247192 3.10883917 0 1 C0 0.67 0 0.34 0 0 Z " fill="#090909" transform="translate(755,434)"/>
<path d="M0 0 C5.02254631 -0.2954439 7.89542386 0.01485372 12 3 C11.67 3.99 11.34 4.98 11 6 C10.67 5.525625 10.34 5.05125 10 4.5625 C6.90186733 2.14208385 3.87973208 2.31801083 0 2 C0 1.34 0 0.68 0 0 Z " fill="#0C0C0C" transform="translate(172,320)"/>
<path d="" fill="#FFFFFF" transform="translate(0,0)"/>
<path d="" fill="#FFFFFF" transform="translate(0,0)"/>
<path d="" fill="#FFFFFF" transform="translate(0,0)"/>
</svg>
